<svg width="800" height="800" viewBox="0 0 800 800" fill="none" xmlns="http://www.w3.org/2000/svg">
<path d="M470.274 230.381C451.68 231.856 430.201 233.332 408.722 236.217C375.831 240.448 342.94 246.219 315.776 259.063C262.859 280.629 227.083 326.429 227.083 393.774C227.083 478.345 281.453 521.238 350.078 521.238C373.01 521.238 391.582 518.439 408.722 514.122C435.95 505.53 458.84 489.757 486.003 461.162C501.776 482.641 506.029 492.686 533.236 515.597C540.374 518.483 547.511 518.483 553.239 514.165C570.401 499.867 600.406 474.071 616.179 459.751C623.296 453.959 621.886 445.432 617.611 438.229C601.838 418.182 586.152 400.955 586.152 362.336V233.397C586.152 178.874 590.383 128.778 550.419 91.5696C517.484 61.3904 465.999 50 425.992 50C420.264 50 414.558 50 408.809 50C335.867 54.2741 258.65 85.7334 241.446 176.076C238.625 187.466 247.238 191.827 252.944 193.281L333.024 203.348C341.616 201.829 345.89 194.713 347.3 187.509C354.525 156.072 380.235 140.299 408.83 137.413C410.284 137.413 411.716 137.413 414.58 137.413C431.72 137.413 450.292 144.616 460.337 158.827C471.684 176.076 470.339 199.03 470.339 219.034L470.274 230.381ZM454.544 400.868C444.542 420.937 427.359 433.825 408.765 438.142C405.923 438.142 401.671 439.617 397.353 439.617C365.894 439.617 347.235 415.253 347.235 379.411C347.235 333.632 374.442 312.066 408.765 302.065C427.359 297.79 448.838 296.315 470.295 296.315V313.52C470.274 346.498 471.619 372.251 454.544 400.868ZM784.215 599.799V604.464C783.456 632.474 768.681 686.215 733.707 715.786C726.721 721.21 719.713 718.108 722.794 710.276C732.969 685.434 756.227 627.766 745.358 614.553C737.656 604.464 705.741 605.223 678.556 607.566C666.145 609.129 655.232 609.845 646.684 611.537C638.939 612.253 637.333 605.31 645.144 599.886C655.254 592.878 666.167 587.454 678.577 583.484C722.816 570.293 774.17 578.06 781.178 586.652C782.697 588.865 784.215 593.529 784.215 599.799ZM710.405 654.256C700.295 662.002 689.469 669.053 678.556 675.367C596.957 724.421 491.297 750.023 399.631 750.023C251.946 750.023 119.861 695.522 19.6469 604.464C11.0553 597.434 18.0631 587.346 28.1734 592.77C136.176 655.819 269.824 694.004 408.136 694.004C495.202 694.004 589.125 677.645 678.534 642.562C684.717 640.306 691.725 637.095 697.952 634.838C711.946 628.525 724.399 644.211 710.405 654.256Z" fill="white"/>
</svg>
