<svg width="800" height="800" viewBox="0 0 800 800" fill="none" xmlns="http://www.w3.org/2000/svg">
<path fill-rule="evenodd" clip-rule="evenodd" d="M507.788 161.07C533.378 131.411 550.628 90.1013 545.907 49C509.03 50.404 464.416 72.5572 437.973 102.181C414.229 128.471 393.501 170.477 399.073 210.772C440.209 213.825 482.198 190.763 507.788 161.07ZM600.034 421.937C601.063 528.183 697.285 563.526 698.35 563.982C697.569 566.474 682.981 614.342 647.666 663.832C617.106 706.583 585.411 749.161 535.472 750.074C486.421 750.951 470.627 722.206 414.513 722.206C358.434 722.206 340.9 749.158 294.475 750.948C246.276 752.668 209.541 704.694 178.768 662.084C115.804 574.932 67.711 415.798 132.308 308.393C164.394 255.077 221.715 221.263 283.969 220.421C331.282 219.543 375.967 250.928 404.894 250.928C433.821 250.928 488.125 213.195 545.198 218.741C569.084 219.689 636.166 227.97 679.219 288.376C675.74 290.446 599.182 333.136 600.034 421.937Z" fill="white"/>
</svg>
